{
	"asset":{
		"generator":"Khronos glTF Blender I/O v4.0.44",
		"version":"2.0"
	},
	"scene":0,
	"scenes":[
		{
			"name":"Scene",
			"nodes":[
				0
			]
		}
	],
	"nodes":[
		{
			"mesh":0,
			"name":"Cylinder"
		}
	],
	"materials":[
		{
			"doubleSided":true,
			"name":"Material.001",
			"pbrMetallicRoughness":{
				"baseColorTexture":{
					"index":0
				},
				"metallicFactor":0,
				"roughnessFactor":0.5
			}
		}
	],
	"meshes":[
		{
			"name":"Cylinder",
			"primitives":[
				{
					"attributes":{
						"POSITION":0,
						"NORMAL":1,
						"TEXCOORD_0":2
					},
					"indices":3,
					"material":0
				}
			]
		}
	],
	"textures":[
		{
			"sampler":0,
			"source":0
		}
	],
	"images":[
		{
			"mimeType":"image/png",
			"name":"barrel",
			"uri":"barrel.png"
		}
	],
	"accessors":[
		{
			"bufferView":0,
			"componentType":5126,
			"count":419,
			"max":[
				0.5674127340316772,
				0.5007362961769104,
				0.5674127340316772
			],
			"min":[
				-0.5674127340316772,
				-0.49926361441612244,
				-0.5674127340316772
			],
			"type":"VEC3"
		},
		{
			"bufferView":1,
			"componentType":5126,
			"count":419,
			"type":"VEC3"
		},
		{
			"bufferView":2,
			"componentType":5126,
			"count":419,
			"type":"VEC2"
		},
		{
			"bufferView":3,
			"componentType":5123,
			"count":1332,
			"type":"SCALAR"
		}
	],
	"bufferViews":[
		{
			"buffer":0,
			"byteLength":5028,
			"byteOffset":0,
			"target":34962
		},
		{
			"buffer":0,
			"byteLength":5028,
			"byteOffset":5028,
			"target":34962
		},
		{
			"buffer":0,
			"byteLength":3352,
			"byteOffset":10056,
			"target":34962
		},
		{
			"buffer":0,
			"byteLength":2664,
			"byteOffset":13408,
			"target":34963
		}
	],
	"samplers":[
		{
			"magFilter":9729,
			"minFilter":9987
		}
	],
	"buffers":[
		{
			"byteLength":16072,
			"uri":"barrel.bin"
		}
	]
}
